<?xml version="1.0" encoding="UTF-8"?>
<!DOCTYPE svg PUBLIC "-//W3C//DTD SVG 1.1//EN" "http://www.w3.org/Graphics/SVG/1.1/DTD/svg11.dtd">
<svg xmlns="http://www.w3.org/2000/svg" version="1.1" width="245px" height="245px" style="shape-rendering:geometricPrecision; text-rendering:geometricPrecision; image-rendering:optimizeQuality; fill-rule:evenodd; clip-rule:evenodd" xmlns:xlink="http://www.w3.org/1999/xlink">
<g><path style="opacity:0.388" fill="#7ab0d7" d="M 90.5,14.5 C 126.002,13.1697 161.669,13.1697 197.5,14.5C 196.675,15.3857 195.675,15.719 194.5,15.5C 160.004,14.5016 125.337,14.1683 90.5,14.5 Z"/></g>
<g><path style="opacity:1" fill="#1875ba" d="M 90.5,14.5 C 125.337,14.1683 160.004,14.5016 194.5,15.5C 187.811,19.0684 180.811,22.0684 173.5,24.5C 172.974,29.807 173.64,34.807 175.5,39.5C 176.902,43.1109 177.902,46.7775 178.5,50.5C 178.5,50.8333 178.5,51.1667 178.5,51.5C 177.833,53.1667 177.167,54.8333 176.5,56.5C 175.833,56.5 175.5,56.1667 175.5,55.5C 175.5,54.8333 175.167,54.5 174.5,54.5C 174.5,54.1667 174.5,53.8333 174.5,53.5C 173.91,52.234 173.41,50.9007 173,49.5C 172.79,51.0581 172.29,52.3915 171.5,53.5C 168.84,51.1739 167.507,48.1739 167.5,44.5C 169.124,38.9781 169.791,33.3114 169.5,27.5C 164.177,29.4933 158.844,31.4933 153.5,33.5C 152.809,47.3829 151.809,61.3829 150.5,75.5C 149.976,80.3809 147.976,84.5476 144.5,88C 159.312,92.5624 171.979,100.396 182.5,111.5C 182.738,113.404 183.738,114.738 185.5,115.5C 187.9,117.296 189.567,119.63 190.5,122.5C 190.427,124.027 191.094,125.027 192.5,125.5C 194.341,127.849 195.674,130.515 196.5,133.5C 196.054,136.01 196.72,138.01 198.5,139.5C 198.5,139.833 198.5,140.167 198.5,140.5C 198.704,143.518 199.037,146.518 199.5,149.5C 196.772,149.171 194.438,149.837 192.5,151.5C 191.417,151.539 190.417,151.873 189.5,152.5C 181.389,128.721 165.389,113.055 141.5,105.5C 139.162,103.96 136.495,103.294 133.5,103.5C 104.059,98.5622 78.559,106.229 57,126.5C 50.977,133.337 46.477,141.004 43.5,149.5C 39.9117,150.331 36.2451,150.331 32.5,149.5C 33.3266,145.193 33.9933,140.86 34.5,136.5C 35.3764,132.418 37.0431,128.751 39.5,125.5C 40.9063,125.027 41.573,124.027 41.5,122.5C 46.8847,112.945 54.218,105.112 63.5,99C 70.9917,94.2546 78.9917,90.588 87.5,88C 84.3063,84.7789 82.3063,80.9456 81.5,76.5C 80.1063,63.826 79.1063,51.1593 78.5,38.5C 64.3234,38.8291 50.3234,38.4958 36.5,37.5C 54.3313,29.4449 72.3313,21.7782 90.5,14.5 Z"/></g>
<g><path style="opacity:0.698" fill="#3989c4" d="M 153.5,33.5 C 153.832,44.8529 153.499,56.1862 152.5,67.5C 151.832,70.3056 151.166,72.9723 150.5,75.5C 151.809,61.3829 152.809,47.3829 153.5,33.5 Z"/></g>
<g><path style="opacity:0.333" fill="#92bdd6" d="M 36.5,37.5 C 50.3234,38.4958 64.3234,38.8291 78.5,38.5C 78.5,38.8333 78.5,39.1667 78.5,39.5C 63.8182,39.8326 49.1515,39.4993 34.5,38.5C 34.9569,37.7025 35.6236,37.3691 36.5,37.5 Z"/></g>
<g><path style="opacity:0.718" fill="#3c8ac4" d="M 78.5,38.5 C 79.1063,51.1593 80.1063,63.826 81.5,76.5C 78.9471,64.4469 77.9471,52.1136 78.5,39.5C 78.5,39.1667 78.5,38.8333 78.5,38.5 Z"/></g>
<g><path style="opacity:0.475" fill="#70a9d2" d="M 175.5,39.5 C 176.458,39.9528 177.292,40.6195 178,41.5C 178.498,44.4816 178.665,47.4816 178.5,50.5C 177.902,46.7775 176.902,43.1109 175.5,39.5 Z"/></g>
<g><path style="opacity:0.451" fill="#90bbd9" d="M 174.5,53.5 C 173.167,53.8333 173.167,54.1667 174.5,54.5C 175.167,54.5 175.5,54.8333 175.5,55.5C 173.41,56.7908 172.076,56.1242 171.5,53.5C 172.29,52.3915 172.79,51.0581 173,49.5C 173.41,50.9007 173.91,52.234 174.5,53.5 Z"/></g>
<g><path style="opacity:0.125" fill="#74abd4" d="M 178.5,51.5 C 178.681,54.553 178.848,57.553 179,60.5C 177.519,59.5291 176.685,58.1958 176.5,56.5C 177.167,54.8333 177.833,53.1667 178.5,51.5 Z"/></g>
<g><path style="opacity:0.624" fill="#589ccb" d="M 133.5,103.5 C 136.495,103.294 139.162,103.96 141.5,105.5C 138.572,105.435 135.905,104.768 133.5,103.5 Z"/></g>
<g><path style="opacity:0.749" fill="#79a8cd" d="M 182.5,111.5 C 184.262,112.262 185.262,113.596 185.5,115.5C 183.738,114.738 182.738,113.404 182.5,111.5 Z"/></g>
<g><path style="opacity:0.467" fill="#7badd3" d="M 41.5,122.5 C 41.573,124.027 40.9063,125.027 39.5,125.5C 39.427,123.973 40.0937,122.973 41.5,122.5 Z"/></g>
<g><path style="opacity:0.435" fill="#80b0d5" d="M 190.5,122.5 C 191.906,122.973 192.573,123.973 192.5,125.5C 191.094,125.027 190.427,124.027 190.5,122.5 Z"/></g>
<g><path style="opacity:0.929" fill="#64a0ce" d="M 196.5,133.5 C 197.738,135.214 198.405,137.214 198.5,139.5C 196.72,138.01 196.054,136.01 196.5,133.5 Z"/></g>
<g><path style="opacity:0.822" fill="#5798ca" d="M 198.5,140.5 C 200.011,143.544 200.678,146.878 200.5,150.5C 197.873,151.092 195.206,151.425 192.5,151.5C 194.438,149.837 196.772,149.171 199.5,149.5C 199.037,146.518 198.704,143.518 198.5,140.5 Z"/></g>
<g><path style="opacity:0.733" fill="#5396c9" d="M 34.5,136.5 C 33.9933,140.86 33.3266,145.193 32.5,149.5C 36.2451,150.331 39.9117,150.331 43.5,149.5C 43.719,150.675 43.3857,151.675 42.5,152.5C 38.8691,151.648 35.2024,150.981 31.5,150.5C 31.5812,145.523 32.5812,140.857 34.5,136.5 Z"/></g>
<g><path style="opacity:0.412" fill="#858585" d="M 14.5,158.5 C 14.5,159.5 14.5,160.5 14.5,161.5C 15.5,161.5 16.5,161.5 17.5,161.5C 13.6019,164.3 12.6019,163.3 14.5,158.5 Z"/></g>
<g><path style="opacity:0.997" fill="#424243" d="M 115.5,215.5 C 116.111,217.913 116.445,220.413 116.5,223C 116.467,225.61 115.8,227.777 114.5,229.5C 99.1696,211.354 80.1696,198.52 57.5,191C 53.2177,189.843 48.8843,189.01 44.5,188.5C 38.1667,185.833 31.8333,185.833 25.5,188.5C 22.8333,188.833 20.1667,189.167 17.5,189.5C 16.325,189.719 15.325,189.386 14.5,188.5C 15.1992,185.69 16.1992,183.023 17.5,180.5C 32.885,179.159 48.0517,180.492 63,184.5C 64.7618,184.056 64.5951,183.556 62.5,183C 52.1445,179.354 41.4779,177.521 30.5,177.5C 26.1667,176.833 21.8333,176.167 17.5,175.5C 17.2865,173.856 17.6198,172.356 18.5,171C 59.4185,167.464 91.7518,182.297 115.5,215.5 Z"/></g>
<g><path style="opacity:0.047" fill="#c1c1c1" d="M 17.5,175.5 C 21.8333,176.167 26.1667,176.833 30.5,177.5C 25.7863,177.827 21.1196,177.493 16.5,176.5C 16.6236,175.893 16.9569,175.56 17.5,175.5 Z"/></g>
<g><path style="opacity:0.02" fill="#b6b6b7" d="M 214.5,175.5 C 215.043,175.56 215.376,175.893 215.5,176.5C 213.027,177.797 210.693,177.797 208.5,176.5C 210.735,176.795 212.735,176.461 214.5,175.5 Z"/></g>
<g><path style="opacity:0.998" fill="#5e5e60" d="M 214.5,175.5 C 212.735,176.461 210.735,176.795 208.5,176.5C 193.293,176.506 178.627,179.339 164.5,185C 176.436,182.151 188.603,180.317 201,179.5C 205.126,180.329 209.293,180.663 213.5,180.5C 215.717,182.619 217.05,185.286 217.5,188.5C 216.675,189.386 215.675,189.719 214.5,189.5C 189.075,185.189 165.742,190.356 144.5,205C 134.466,212.189 125.466,220.523 117.5,230C 116.251,230.74 115.251,230.573 114.5,229.5C 115.8,227.777 116.467,225.61 116.5,223C 116.445,220.413 116.111,217.913 115.5,215.5C 136.882,187.221 165.382,171.888 201,169.5C 205.158,170.073 209.324,170.573 213.5,171C 214.38,172.356 214.714,173.856 214.5,175.5 Z"/></g>
<g><path style="opacity:0.965" fill="#626263" d="M 113.5,200.5 C 115.344,198.721 116.01,196.388 115.5,193.5C 137.892,172.636 164.225,159.136 194.5,153C 201.826,152.5 209.159,152.334 216.5,152.5C 217.374,155.789 218.041,159.123 218.5,162.5C 187.873,156.157 160.54,162.99 136.5,183C 129,189.167 122.167,196 116,203.5C 114.955,202.627 114.122,201.627 113.5,200.5 Z"/></g>
<g><path style="opacity:1" fill="#48484a" d="M 115.5,193.5 C 116.01,196.388 115.344,198.721 113.5,200.5C 98.4208,182.783 79.7541,170.283 57.5,163C 44.2758,159.145 30.9424,158.645 17.5,161.5C 16.5,161.5 15.5,161.5 14.5,161.5C 14.5,160.5 14.5,159.5 14.5,158.5C 14.3573,156.738 14.6906,155.071 15.5,153.5C 29.8981,151.291 43.8981,152.791 57.5,158C 79.3205,166.031 98.6538,177.865 115.5,193.5 Z"/></g>
<g><path style="opacity:0.752" fill="#6c6c6d" d="M 44.5,188.5 C 38.1667,187.167 31.8333,187.167 25.5,188.5C 31.8333,185.833 38.1667,185.833 44.5,188.5 Z"/></g>
<g><path style="opacity:0.176" fill="#7d7d7e" d="M 71.5,186.5 C 73.487,187.164 75.1537,188.331 76.5,190C 74.4372,189.475 72.4372,188.641 70.5,187.5C 71.1667,187.5 71.5,187.167 71.5,186.5 Z"/></g>
<g><path style="opacity:0.4" fill="#7d7d7d" d="M 17.5,180.5 C 16.1992,183.023 15.1992,185.69 14.5,188.5C 15.325,189.386 16.325,189.719 17.5,189.5C 16.469,190.249 15.3024,190.915 14,191.5C 13.5423,188.442 13.8756,185.442 15,182.5C 15.4169,181.244 16.2502,180.577 17.5,180.5 Z"/></g>
<g><path style="opacity:0.071" fill="#b3d2e6" d="M 188.5,190.5 C 189.302,189.115 189.969,189.282 190.5,191C 190.43,191.765 190.097,192.265 189.5,192.5C 189.672,191.508 189.338,190.842 188.5,190.5 Z"/></g>
<g><path style="opacity:0.325" fill="#8d8d8d" d="M 213.5,180.5 C 214.675,180.281 215.675,180.614 216.5,181.5C 217.973,184.715 218.473,188.049 218,191.5C 216.698,190.915 215.531,190.249 214.5,189.5C 215.675,189.719 216.675,189.386 217.5,188.5C 217.05,185.286 215.717,182.619 213.5,180.5 Z"/></g>
<g><path style="opacity:0.757" fill="#6aa2ce" d="M 48.5,193.5 C 47.4693,192.645 46.3026,191.978 45,191.5C 43.9701,191.836 43.4701,192.503 43.5,193.5C 41.5241,192.573 41.1908,191.24 42.5,189.5C 44.1151,190.154 45.7818,190.654 47.5,191C 48.2524,191.671 48.5858,192.504 48.5,193.5 Z"/></g>
<g><path style="opacity:1" fill="#4c8cc4" d="M 188.5,190.5 C 189.338,190.842 189.672,191.508 189.5,192.5C 182.076,202.757 172.91,211.09 162,217.5C 161.333,216.833 161.333,216.167 162,215.5C 171.432,209.403 178.765,201.403 184,191.5C 185.356,190.62 186.856,190.286 188.5,190.5 Z"/></g>
<g><path style="opacity:1" fill="#4185c2" d="M 48.5,193.5 C 51.5798,197.975 54.9132,202.308 58.5,206.5C 58.1583,207.338 57.4916,207.672 56.5,207.5C 51.4882,203.487 47.1549,198.821 43.5,193.5C 43.4701,192.503 43.9701,191.836 45,191.5C 46.3026,191.978 47.4693,192.645 48.5,193.5 Z"/></g>
<g><path style="opacity:0.8" fill="#6aa2cd" d="M 58.5,206.5 C 61.7196,209.883 65.3862,212.716 69.5,215C 70.4506,215.718 70.6172,216.551 70,217.5C 64.8081,214.999 60.3081,211.666 56.5,207.5C 57.4916,207.672 58.1583,207.338 58.5,206.5 Z"/></g>
</svg>
