<?xml version="1.0" encoding="UTF-8"?>
<!DOCTYPE svg PUBLIC "-//W3C//DTD SVG 1.1//EN" "http://www.w3.org/Graphics/SVG/1.1/DTD/svg11.dtd">
<svg xmlns="http://www.w3.org/2000/svg" version="1.1" width="608px" height="344px" style="shape-rendering:geometricPrecision; text-rendering:geometricPrecision; image-rendering:optimizeQuality; fill-rule:evenodd; clip-rule:evenodd" xmlns:xlink="http://www.w3.org/1999/xlink">
<g><path style="opacity:0.388" fill="#7ab0d7" d="M 270.5,38.5 C 306.002,37.1697 341.669,37.1697 377.5,38.5C 376.675,39.3857 375.675,39.719 374.5,39.5C 340.004,38.5016 305.337,38.1683 270.5,38.5 Z"/></g>
<g><path style="opacity:1" fill="#1875ba" d="M 270.5,38.5 C 305.337,38.1683 340.004,38.5016 374.5,39.5C 367.811,43.0684 360.811,46.0684 353.5,48.5C 352.974,53.807 353.64,58.807 355.5,63.5C 356.902,67.1109 357.902,70.7775 358.5,74.5C 358.5,74.8333 358.5,75.1667 358.5,75.5C 357.833,77.1667 357.167,78.8333 356.5,80.5C 355.833,80.5 355.5,80.1667 355.5,79.5C 355.5,78.8333 355.167,78.5 354.5,78.5C 354.5,78.1667 354.5,77.8333 354.5,77.5C 353.91,76.234 353.41,74.9007 353,73.5C 352.79,75.0581 352.29,76.3915 351.5,77.5C 348.84,75.1739 347.507,72.1739 347.5,68.5C 349.124,62.9781 349.791,57.3114 349.5,51.5C 344.177,53.4933 338.844,55.4933 333.5,57.5C 332.809,71.3829 331.809,85.3829 330.5,99.5C 329.976,104.381 327.976,108.548 324.5,112C 339.312,116.562 351.979,124.396 362.5,135.5C 362.738,137.404 363.738,138.738 365.5,139.5C 367.9,141.296 369.567,143.63 370.5,146.5C 370.427,148.027 371.094,149.027 372.5,149.5C 374.341,151.849 375.674,154.515 376.5,157.5C 376.054,160.01 376.72,162.01 378.5,163.5C 378.5,163.833 378.5,164.167 378.5,164.5C 378.704,167.518 379.037,170.518 379.5,173.5C 376.772,173.171 374.438,173.837 372.5,175.5C 371.417,175.539 370.417,175.873 369.5,176.5C 361.389,152.721 345.389,137.055 321.5,129.5C 319.162,127.96 316.495,127.294 313.5,127.5C 284.059,122.562 258.559,130.229 237,150.5C 230.977,157.337 226.477,165.004 223.5,173.5C 219.912,174.331 216.245,174.331 212.5,173.5C 213.327,169.193 213.993,164.86 214.5,160.5C 215.376,156.418 217.043,152.751 219.5,149.5C 220.906,149.027 221.573,148.027 221.5,146.5C 226.885,136.945 234.218,129.112 243.5,123C 250.992,118.255 258.992,114.588 267.5,112C 264.306,108.779 262.306,104.946 261.5,100.5C 260.106,87.826 259.106,75.1593 258.5,62.5C 244.323,62.8291 230.323,62.4958 216.5,61.5C 234.331,53.4449 252.331,45.7782 270.5,38.5 Z"/></g>
<g><path style="opacity:0.698" fill="#3989c4" d="M 333.5,57.5 C 333.832,68.8529 333.499,80.1862 332.5,91.5C 331.832,94.3056 331.166,96.9723 330.5,99.5C 331.809,85.3829 332.809,71.3829 333.5,57.5 Z"/></g>
<g><path style="opacity:0.333" fill="#92bdd6" d="M 216.5,61.5 C 230.323,62.4958 244.323,62.8291 258.5,62.5C 258.5,62.8333 258.5,63.1667 258.5,63.5C 243.818,63.8326 229.152,63.4993 214.5,62.5C 214.957,61.7025 215.624,61.3691 216.5,61.5 Z"/></g>
<g><path style="opacity:0.718" fill="#3c8ac4" d="M 258.5,62.5 C 259.106,75.1593 260.106,87.826 261.5,100.5C 258.947,88.4469 257.947,76.1136 258.5,63.5C 258.5,63.1667 258.5,62.8333 258.5,62.5 Z"/></g>
<g><path style="opacity:0.475" fill="#70a9d2" d="M 355.5,63.5 C 356.458,63.9528 357.292,64.6195 358,65.5C 358.498,68.4816 358.665,71.4816 358.5,74.5C 357.902,70.7775 356.902,67.1109 355.5,63.5 Z"/></g>
<g><path style="opacity:0.451" fill="#90bbd9" d="M 354.5,77.5 C 353.167,77.8333 353.167,78.1667 354.5,78.5C 355.167,78.5 355.5,78.8333 355.5,79.5C 353.41,80.7908 352.076,80.1242 351.5,77.5C 352.29,76.3915 352.79,75.0581 353,73.5C 353.41,74.9007 353.91,76.234 354.5,77.5 Z"/></g>
<g><path style="opacity:0.125" fill="#74abd4" d="M 358.5,75.5 C 358.681,78.553 358.848,81.553 359,84.5C 357.519,83.5291 356.685,82.1958 356.5,80.5C 357.167,78.8333 357.833,77.1667 358.5,75.5 Z"/></g>
<g><path style="opacity:0.624" fill="#589ccb" d="M 313.5,127.5 C 316.495,127.294 319.162,127.96 321.5,129.5C 318.572,129.435 315.905,128.768 313.5,127.5 Z"/></g>
<g><path style="opacity:0.749" fill="#79a8cd" d="M 362.5,135.5 C 364.262,136.262 365.262,137.596 365.5,139.5C 363.738,138.738 362.738,137.404 362.5,135.5 Z"/></g>
<g><path style="opacity:0.467" fill="#7badd3" d="M 221.5,146.5 C 221.573,148.027 220.906,149.027 219.5,149.5C 219.427,147.973 220.094,146.973 221.5,146.5 Z"/></g>
<g><path style="opacity:0.435" fill="#80b0d5" d="M 370.5,146.5 C 371.906,146.973 372.573,147.973 372.5,149.5C 371.094,149.027 370.427,148.027 370.5,146.5 Z"/></g>
<g><path style="opacity:0.929" fill="#64a0ce" d="M 376.5,157.5 C 377.738,159.214 378.405,161.214 378.5,163.5C 376.72,162.01 376.054,160.01 376.5,157.5 Z"/></g>
<g><path style="opacity:0.822" fill="#5798ca" d="M 378.5,164.5 C 380.011,167.544 380.678,170.878 380.5,174.5C 377.873,175.092 375.206,175.425 372.5,175.5C 374.438,173.837 376.772,173.171 379.5,173.5C 379.037,170.518 378.704,167.518 378.5,164.5 Z"/></g>
<g><path style="opacity:0.733" fill="#5396c9" d="M 214.5,160.5 C 213.993,164.86 213.327,169.193 212.5,173.5C 216.245,174.331 219.912,174.331 223.5,173.5C 223.719,174.675 223.386,175.675 222.5,176.5C 218.869,175.648 215.202,174.981 211.5,174.5C 211.581,169.523 212.581,164.857 214.5,160.5 Z"/></g>
<g><path style="opacity:0.412" fill="#858585" d="M 194.5,182.5 C 194.5,183.5 194.5,184.5 194.5,185.5C 195.5,185.5 196.5,185.5 197.5,185.5C 193.602,188.3 192.602,187.3 194.5,182.5 Z"/></g>
<g><path style="opacity:0.997" fill="#424243" d="M 295.5,239.5 C 296.111,241.913 296.445,244.413 296.5,247C 296.467,249.61 295.8,251.777 294.5,253.5C 279.17,235.354 260.17,222.52 237.5,215C 233.218,213.843 228.884,213.01 224.5,212.5C 218.167,209.833 211.833,209.833 205.5,212.5C 202.833,212.833 200.167,213.167 197.5,213.5C 196.325,213.719 195.325,213.386 194.5,212.5C 195.199,209.69 196.199,207.023 197.5,204.5C 212.885,203.159 228.052,204.492 243,208.5C 244.762,208.056 244.595,207.556 242.5,207C 232.145,203.354 221.478,201.521 210.5,201.5C 206.167,200.833 201.833,200.167 197.5,199.5C 197.286,197.856 197.62,196.356 198.5,195C 239.419,191.464 271.752,206.297 295.5,239.5 Z"/></g>
<g><path style="opacity:0.047" fill="#c1c1c1" d="M 197.5,199.5 C 201.833,200.167 206.167,200.833 210.5,201.5C 205.786,201.827 201.12,201.493 196.5,200.5C 196.624,199.893 196.957,199.56 197.5,199.5 Z"/></g>
<g><path style="opacity:0.02" fill="#b6b6b7" d="M 394.5,199.5 C 395.043,199.56 395.376,199.893 395.5,200.5C 393.027,201.797 390.693,201.797 388.5,200.5C 390.735,200.795 392.735,200.461 394.5,199.5 Z"/></g>
<g><path style="opacity:0.998" fill="#5e5e60" d="M 394.5,199.5 C 392.735,200.461 390.735,200.795 388.5,200.5C 373.293,200.506 358.627,203.339 344.5,209C 356.436,206.151 368.603,204.317 381,203.5C 385.126,204.329 389.293,204.663 393.5,204.5C 395.717,206.619 397.05,209.286 397.5,212.5C 396.675,213.386 395.675,213.719 394.5,213.5C 369.075,209.189 345.742,214.356 324.5,229C 314.466,236.189 305.466,244.523 297.5,254C 296.251,254.74 295.251,254.573 294.5,253.5C 295.8,251.777 296.467,249.61 296.5,247C 296.445,244.413 296.111,241.913 295.5,239.5C 316.882,211.221 345.382,195.888 381,193.5C 385.158,194.073 389.324,194.573 393.5,195C 394.38,196.356 394.714,197.856 394.5,199.5 Z"/></g>
<g><path style="opacity:0.965" fill="#626263" d="M 293.5,224.5 C 295.344,222.721 296.01,220.388 295.5,217.5C 317.892,196.636 344.225,183.136 374.5,177C 381.826,176.5 389.159,176.334 396.5,176.5C 397.374,179.789 398.041,183.123 398.5,186.5C 367.873,180.157 340.54,186.99 316.5,207C 309,213.167 302.167,220 296,227.5C 294.955,226.627 294.122,225.627 293.5,224.5 Z"/></g>
<g><path style="opacity:1" fill="#48484a" d="M 295.5,217.5 C 296.01,220.388 295.344,222.721 293.5,224.5C 278.421,206.783 259.754,194.283 237.5,187C 224.276,183.145 210.942,182.645 197.5,185.5C 196.5,185.5 195.5,185.5 194.5,185.5C 194.5,184.5 194.5,183.5 194.5,182.5C 194.357,180.738 194.691,179.071 195.5,177.5C 209.898,175.291 223.898,176.791 237.5,182C 259.32,190.031 278.654,201.865 295.5,217.5 Z"/></g>
<g><path style="opacity:0.752" fill="#6c6c6d" d="M 224.5,212.5 C 218.167,211.167 211.833,211.167 205.5,212.5C 211.833,209.833 218.167,209.833 224.5,212.5 Z"/></g>
<g><path style="opacity:0.176" fill="#7d7d7e" d="M 251.5,210.5 C 253.487,211.164 255.154,212.331 256.5,214C 254.437,213.475 252.437,212.641 250.5,211.5C 251.167,211.5 251.5,211.167 251.5,210.5 Z"/></g>
<g><path style="opacity:0.4" fill="#7d7d7d" d="M 197.5,204.5 C 196.199,207.023 195.199,209.69 194.5,212.5C 195.325,213.386 196.325,213.719 197.5,213.5C 196.469,214.249 195.302,214.915 194,215.5C 193.542,212.442 193.876,209.442 195,206.5C 195.417,205.244 196.25,204.577 197.5,204.5 Z"/></g>
<g><path style="opacity:0.071" fill="#b3d2e6" d="M 368.5,214.5 C 369.302,213.115 369.969,213.282 370.5,215C 370.43,215.765 370.097,216.265 369.5,216.5C 369.672,215.508 369.338,214.842 368.5,214.5 Z"/></g>
<g><path style="opacity:0.325" fill="#8d8d8d" d="M 393.5,204.5 C 394.675,204.281 395.675,204.614 396.5,205.5C 397.973,208.715 398.473,212.049 398,215.5C 396.698,214.915 395.531,214.249 394.5,213.5C 395.675,213.719 396.675,213.386 397.5,212.5C 397.05,209.286 395.717,206.619 393.5,204.5 Z"/></g>
<g><path style="opacity:0.757" fill="#6aa2ce" d="M 228.5,217.5 C 227.469,216.645 226.303,215.978 225,215.5C 223.97,215.836 223.47,216.503 223.5,217.5C 221.524,216.573 221.191,215.24 222.5,213.5C 224.115,214.154 225.782,214.654 227.5,215C 228.252,215.671 228.586,216.504 228.5,217.5 Z"/></g>
<g><path style="opacity:1" fill="#4c8cc4" d="M 368.5,214.5 C 369.338,214.842 369.672,215.508 369.5,216.5C 362.076,226.757 352.91,235.09 342,241.5C 341.333,240.833 341.333,240.167 342,239.5C 351.432,233.403 358.765,225.403 364,215.5C 365.356,214.62 366.856,214.286 368.5,214.5 Z"/></g>
<g><path style="opacity:1" fill="#4185c2" d="M 228.5,217.5 C 231.58,221.975 234.913,226.308 238.5,230.5C 238.158,231.338 237.492,231.672 236.5,231.5C 231.488,227.487 227.155,222.821 223.5,217.5C 223.47,216.503 223.97,215.836 225,215.5C 226.303,215.978 227.469,216.645 228.5,217.5 Z"/></g>
<g><path style="opacity:0.8" fill="#6aa2cd" d="M 238.5,230.5 C 241.72,233.883 245.386,236.716 249.5,239C 250.451,239.718 250.617,240.551 250,241.5C 244.808,238.999 240.308,235.666 236.5,231.5C 237.492,231.672 238.158,231.338 238.5,230.5 Z"/></g>
<g><path style="opacity:0.859" fill="#0f73ba" d="M 44.5,254.5 C 47.8333,254.5 51.1667,254.5 54.5,254.5C 54.9332,259.833 55.4332,265.166 56,270.5C 58.6891,265.437 61.1891,260.271 63.5,255C 66.8168,254.502 70.1501,254.335 73.5,254.5C 70.9507,268.463 68.6174,282.463 66.5,296.5C 64.1667,296.5 61.8333,296.5 59.5,296.5C 61.2256,286.152 62.7256,275.819 64,265.5C 62.1667,269.833 60.3333,274.167 58.5,278.5C 56.2573,279.474 53.924,279.808 51.5,279.5C 51.9308,274.968 51.4308,270.635 50,266.5C 48.3333,275.833 46.6667,285.167 45,294.5C 42.8209,296.637 40.3209,296.971 37.5,295.5C 40.3732,281.927 42.7066,268.261 44.5,254.5 Z"/></g>
<g><path style="opacity:0.845" fill="#0f73ba" d="M 383.5,258.5 C 392.12,258.744 394.953,263.077 392,271.5C 391.154,277.576 389.988,283.576 388.5,289.5C 389.824,290.935 391.49,291.935 393.5,292.5C 392.754,293.736 392.421,295.07 392.5,296.5C 388.207,297.464 385.04,296.131 383,292.5C 379.257,296.259 374.757,297.426 369.5,296C 368.333,295.5 367.5,294.667 367,293.5C 366.017,279.64 372.517,271.973 386.5,270.5C 386.662,268.473 386.495,266.473 386,264.5C 385,263.167 384,263.167 383,264.5C 380.909,262.17 381.075,260.17 383.5,258.5 Z M 384.5,276.5 C 384.68,282.637 382.347,287.471 377.5,291C 374.094,292.24 372.427,291.073 372.5,287.5C 373.926,281.075 377.926,277.409 384.5,276.5 Z"/></g>
<g><path style="opacity:0.839" fill="#0f73ba" d="M 320.5,261.5 C 330.522,259.691 335.522,263.857 335.5,274C 335.735,281.632 333.401,288.299 328.5,294C 313.183,300.021 306.683,294.854 309,278.5C 309.624,270.421 313.457,264.755 320.5,261.5 Z M 322.5,266.5 C 327.693,266.82 330.026,269.654 329.5,275C 329.329,280.555 327.662,285.555 324.5,290C 317.708,292.893 314.374,290.56 314.5,283C 314.236,275.902 316.902,270.402 322.5,266.5 Z"/></g>
<g><path style="opacity:0.847" fill="#0f73ba" d="M 472.5,261.5 C 475.247,261.187 477.914,261.52 480.5,262.5C 481.008,266.303 481.842,269.97 483,273.5C 485.002,269.658 486.502,265.658 487.5,261.5C 490.5,261.5 493.5,261.5 496.5,261.5C 494.886,272.905 492.886,284.239 490.5,295.5C 488.5,296.833 486.5,296.833 484.5,295.5C 486.539,287.934 487.706,280.267 488,272.5C 486.861,275.583 485.528,278.583 484,281.5C 482.301,282.406 480.467,282.739 478.5,282.5C 478.837,278.692 478.337,275.026 477,271.5C 475.775,279.186 474.441,286.853 473,294.5C 471.23,296.418 469.063,296.918 466.5,296C 468.873,284.595 470.873,273.095 472.5,261.5 Z"/></g>
<g><path style="opacity:0.827" fill="#0f73ba" d="M 537.5,261.5 C 543.061,260.802 548.227,261.802 553,264.5C 553.711,266.367 553.211,267.867 551.5,269C 548.41,268.806 545.41,267.973 542.5,266.5C 538.448,266.707 536.948,268.707 538,272.5C 541.667,275.833 545.333,279.167 549,282.5C 551.65,288.893 549.816,293.393 543.5,296C 538.5,296.667 533.5,296.667 528.5,296C 524.952,294.494 524.619,292.327 527.5,289.5C 532.006,291.384 536.673,291.884 541.5,291C 543.032,290.3 544.032,289.134 544.5,287.5C 540.515,283.015 536.349,278.682 532,274.5C 530.102,268.387 531.935,264.053 537.5,261.5 Z"/></g>
<g><path style="opacity:0.821" fill="#0f73ba" d="M 258.5,262.5 C 260.5,262.5 262.5,262.5 264.5,262.5C 264.682,264.591 264.348,266.591 263.5,268.5C 267.107,269.489 270.774,269.823 274.5,269.5C 274.5,271.5 274.5,273.5 274.5,275.5C 270.5,275.5 266.5,275.5 262.5,275.5C 261.448,280.134 260.948,284.801 261,289.5C 261.956,290.894 263.289,291.561 265,291.5C 267.137,290.923 269.304,290.59 271.5,290.5C 271.421,291.93 271.754,293.264 272.5,294.5C 267.25,296.931 261.917,297.098 256.5,295C 255.042,292.923 254.376,290.59 254.5,288C 254.791,284.088 255.457,280.255 256.5,276.5C 254.604,275.534 252.604,275.201 250.5,275.5C 250.172,270.582 252.505,268.582 257.5,269.5C 257.993,267.194 258.326,264.861 258.5,262.5 Z"/></g>
<g><path style="opacity:0.842" fill="#0f73ba" d="M 86.5,269.5 C 96.8864,269.903 100.72,275.236 98,285.5C 95.2552,294.794 89.0885,298.294 79.5,296C 76.8981,295.065 75.3981,293.232 75,290.5C 73.8154,283.399 75.6488,277.232 80.5,272C 82.6115,271.155 84.6115,270.322 86.5,269.5 Z M 85.5,275.5 C 90.3306,274.667 92.664,276.667 92.5,281.5C 92.595,286.674 90.2616,290.007 85.5,291.5C 82.0295,291.028 80.3628,289.028 80.5,285.5C 80.6614,281.312 82.328,277.978 85.5,275.5 Z"/></g>
<g><path style="opacity:0.836" fill="#0f73ba" d="M 108.5,269.5 C 109.75,269.577 110.583,270.244 111,271.5C 111.423,278.015 112.423,284.349 114,290.5C 119.58,285.006 122.746,278.34 123.5,270.5C 125.5,269.167 127.5,269.167 129.5,270.5C 129.008,280.985 124.675,289.485 116.5,296C 113.518,296.498 110.518,296.665 107.5,296.5C 106.828,287.793 105.828,279.126 104.5,270.5C 106.099,270.768 107.432,270.434 108.5,269.5 Z"/></g>
<g><path style="opacity:0.831" fill="#0f73ba" d="M 146.5,269.5 C 154.729,268.892 158.229,272.559 157,280.5C 152.321,285.474 146.488,287.974 139.5,288C 143.428,291.992 147.928,292.492 153,289.5C 156.543,292.986 155.71,295.153 150.5,296C 136.66,298.496 131.493,292.996 135,279.5C 137.21,274.112 141.043,270.779 146.5,269.5 Z M 145.5,275.5 C 147.199,275.34 148.866,275.506 150.5,276C 150.915,279.289 149.248,281.289 145.5,282C 143.741,282.798 142.074,282.631 140.5,281.5C 141.497,278.845 143.164,276.845 145.5,275.5 Z"/></g>
<g><path style="opacity:0.839" fill="#0f73ba" d="M 164.5,269.5 C 166.167,269.5 167.833,269.5 169.5,269.5C 169.351,270.552 169.517,271.552 170,272.5C 172.952,268.518 175.952,268.518 179,272.5C 182.142,268.648 185.142,268.648 188,272.5C 187.706,280.267 186.539,287.934 184.5,295.5C 182.5,296.833 180.5,296.833 178.5,295.5C 179.833,289.167 181.167,282.833 182.5,276.5C 182,276.167 181.5,275.833 181,275.5C 179.265,276.682 178.265,278.349 178,280.5C 176.84,285.792 176.007,291.125 175.5,296.5C 173.473,296.662 171.473,296.495 169.5,296C 170.991,289.225 172.324,282.392 173.5,275.5C 171.876,275.36 170.71,276.027 170,277.5C 168.186,283.718 167.019,290.051 166.5,296.5C 164.5,296.5 162.5,296.5 160.5,296.5C 161.724,287.486 163.058,278.486 164.5,269.5 Z"/></g>
<g><path style="opacity:0.829" fill="#0f73ba" d="M 205.5,269.5 C 214.613,269.093 217.779,273.093 215,281.5C 213.269,283.617 211.102,285.117 208.5,286C 205.08,286.517 201.747,287.35 198.5,288.5C 199.797,290.4 201.63,291.4 204,291.5C 206.822,290.549 209.655,290.049 212.5,290C 215.628,293.682 214.628,295.682 209.5,296C 196.067,299.056 190.567,293.89 193,280.5C 195.344,274.604 199.511,270.937 205.5,269.5 Z M 204.5,275.5 C 206.167,275.5 207.833,275.5 209.5,275.5C 209.714,277.144 209.38,278.644 208.5,280C 197.409,284.429 196.076,282.929 204.5,275.5 Z"/></g>
<g><path style="opacity:0.84" fill="#0f73ba" d="M 224.5,269.5 C 226.167,269.5 227.833,269.5 229.5,269.5C 229.03,273.97 230.03,274.47 232.5,271C 239.292,267.898 243.626,269.898 245.5,277C 244.206,283.138 243.039,289.304 242,295.5C 239.861,296.769 237.695,296.769 235.5,295.5C 237.366,288.969 238.366,282.302 238.5,275.5C 232.355,275.806 228.855,279.14 228,285.5C 227.064,289.114 226.564,292.78 226.5,296.5C 224.143,296.663 221.81,296.497 219.5,296C 221.54,287.265 223.206,278.432 224.5,269.5 Z"/></g>
<g><path style="opacity:0.846" fill="#0f73ba" d="M 340.5,269.5 C 344.62,269.091 347.954,270.424 350.5,273.5C 359.039,266.94 364.039,268.94 365.5,279.5C 363.5,279.5 361.5,279.5 359.5,279.5C 359.915,277.052 358.915,275.719 356.5,275.5C 354.337,275.745 352.67,276.745 351.5,278.5C 349.777,282.565 348.444,286.732 347.5,291C 349.473,291.495 351.473,291.662 353.5,291.5C 353.5,293.167 353.5,294.833 353.5,296.5C 347.5,296.5 341.5,296.5 335.5,296.5C 335.5,294.833 335.5,293.167 335.5,291.5C 337.604,291.799 339.604,291.466 341.5,290.5C 342.393,286.144 343.393,281.811 344.5,277.5C 344.291,276.914 343.957,276.414 343.5,276C 341.527,275.505 339.527,275.338 337.5,275.5C 337.5,273.833 337.5,272.167 337.5,270.5C 338.791,270.737 339.791,270.404 340.5,269.5 Z"/></g>
<g><path style="opacity:0.829" fill="#0f73ba" d="M 410.5,269.5 C 419.613,269.093 422.779,273.093 420,281.5C 418.269,283.617 416.102,285.117 413.5,286C 410.08,286.517 406.747,287.35 403.5,288.5C 404.797,290.4 406.63,291.4 409,291.5C 411.822,290.549 414.655,290.049 417.5,290C 420.628,293.682 419.628,295.682 414.5,296C 401.067,299.056 395.567,293.89 398,280.5C 400.344,274.604 404.511,270.937 410.5,269.5 Z M 409.5,275.5 C 411.167,275.5 412.833,275.5 414.5,275.5C 414.714,277.144 414.38,278.644 413.5,280C 402.409,284.429 401.076,282.929 409.5,275.5 Z"/></g>
<g><path style="opacity:0.839" fill="#0f73ba" d="M 427.5,269.5 C 432.856,268.586 436.356,270.586 438,275.5C 440.678,269.912 444.845,268.412 450.5,271C 452.585,273.419 453.585,276.253 453.5,279.5C 451.167,279.5 448.833,279.5 446.5,279.5C 446.5,278.167 446.5,276.833 446.5,275.5C 443.956,275.104 441.789,275.771 440,277.5C 437.594,281.886 436.094,286.552 435.5,291.5C 437.5,291.5 439.5,291.5 441.5,291.5C 441.714,293.144 441.38,294.644 440.5,296C 434.472,296.83 428.472,296.664 422.5,295.5C 423.246,294.264 423.579,292.93 423.5,291.5C 425.5,291.5 427.5,291.5 429.5,291.5C 430.556,286.219 431.223,280.886 431.5,275.5C 429.5,275.5 427.5,275.5 425.5,275.5C 425.259,273.114 425.925,271.114 427.5,269.5 Z"/></g>
<g><path style="opacity:0.785" fill="#0f73ba" d="M 507.5,288.5 C 512.19,288.94 513.524,291.274 511.5,295.5C 505.976,297.914 503.809,296.248 505,290.5C 505.995,289.934 506.828,289.267 507.5,288.5 Z"/></g>
</svg>
